<svg id="Layer_1" data-name="Layer 1" xmlns="http://www.w3.org/2000/svg" viewBox="0 0 81.75 30.36"><defs><style>.cls-1{fill:#fc0;}.cls-2{fill:#04cdff;}.cls-3{fill:#f21eeb;}.cls-4,.cls-5,.cls-6{isolation:isolate;}.cls-5,.cls-6{font-size:14.29px;fill:#fffffe;font-family:Catamaran-Regular, Catamaran;}.cls-5{letter-spacing:-0.03em;}</style></defs><g id="Artboard_1" data-name="Artboard 1"><g id="Ellipse_1" data-name="Ellipse 1"><path class="cls-1" d="M18.89,1.8c6.05,0,11,5.22,10.94,11.64s-4.92,11.62-11,11.61S7.91,19.83,7.92,13.41a11.68,11.68,0,0,1,6.69-10.7,10.42,10.42,0,0,1,4.28-.91m0-.84C12.39,1,7.11,6.55,7.11,13.46S12.39,26,18.89,26s11.78-5.6,11.78-12.5S25.39,1,18.89,1Z" transform="translate(-0.49 -0.96)"/></g><g id="Ellipse_1-2" data-name="Ellipse 1-2"><path class="cls-2" d="M12.27,1.85c6.05,0,10.94,5.22,10.94,11.65s-4.92,11.62-11,11.61S1.29,19.89,1.3,13.47A11.66,11.66,0,0,1,8,2.77a10.39,10.39,0,0,1,4.28-.92m0-.83C5.76,1,.49,6.61.49,13.52S5.76,26,12.27,26,24,20.42,24,13.52,18.77,1,12.27,1Z" transform="translate(-0.49 -0.96)"/></g><g id="Ellipse_1-3" data-name="Ellipse 1-3"><path class="cls-3" d="M15.63,7.15c6,0,10.95,5.23,10.94,11.65s-4.92,11.62-11,11.61S4.65,25.19,4.66,18.77a11.68,11.68,0,0,1,6.69-10.7,10.43,10.43,0,0,1,4.28-.92m0-.83c-6.5,0-11.78,5.59-11.78,12.5s5.28,12.5,11.78,12.5,11.78-5.6,11.78-12.5S22.13,6.32,15.63,6.32Z" transform="translate(-0.49 -0.96)"/></g><g id="FEMDP"><g class="cls-4"><text class="cls-5" transform="translate(37.12 16.13) scale(0.94 1)">F</text><text class="cls-5" transform="translate(44.71 16.13) scale(0.94 1)">E</text><text class="cls-6" transform="translate(52.88 16.13) scale(0.94 1)">MDP</text></g></g></g></svg>